<mxfile host="app.diagrams.net" modified="2023-11-13T20:24:47.480Z" agent="Mozilla/5.0 (Windows NT 10.0; Win64; x64) AppleWebKit/537.36 (KHTML, like Gecko) Chrome/119.0.0.0 Safari/537.36 Edg/119.0.0.0" etag="LZOlq55ssgn3Ut1kWoQh" version="22.1.0" type="github" pages="3">
  <diagram id="C5RBs43oDa-KdzZeNtuy" name="Primeira sincronização">
    <mxGraphModel dx="2846" dy="635" grid="1" gridSize="10" guides="1" tooltips="1" connect="1" arrows="1" fold="1" page="1" pageScale="1" pageWidth="827" pageHeight="1169" math="0" shadow="0">
      <root>
        <mxCell id="WIyWlLk6GJQsqaUBKTNV-0" />
        <mxCell id="WIyWlLk6GJQsqaUBKTNV-1" parent="WIyWlLk6GJQsqaUBKTNV-0" />
        <mxCell id="jRsQkOjOdsNTi6uR8f5m-53" style="edgeStyle=orthogonalEdgeStyle;rounded=0;sketch=1;hachureGap=4;jiggle=2;curveFitting=1;orthogonalLoop=1;jettySize=auto;html=1;exitX=1;exitY=0.5;exitDx=0;exitDy=0;entryX=1;entryY=0.5;entryDx=0;entryDy=0;fontFamily=Architects Daughter;fontSource=https%3A%2F%2Ffonts.googleapis.com%2Fcss%3Ffamily%3DArchitects%2BDaughter;fontSize=16;" parent="WIyWlLk6GJQsqaUBKTNV-1" source="Hi__8zFEiCCDAj8Q8Fkw-0" target="jRsQkOjOdsNTi6uR8f5m-14" edge="1">
          <mxGeometry relative="1" as="geometry" />
        </mxCell>
        <mxCell id="Hi__8zFEiCCDAj8Q8Fkw-0" value="Client" style="html=1;whiteSpace=wrap;sketch=1;hachureGap=4;jiggle=2;curveFitting=1;fontFamily=Architects Daughter;fontSource=https%3A%2F%2Ffonts.googleapis.com%2Fcss%3Ffamily%3DArchitects%2BDaughter;fontSize=20;" parent="WIyWlLk6GJQsqaUBKTNV-1" vertex="1">
          <mxGeometry x="-1390" y="585" width="110" height="50" as="geometry" />
        </mxCell>
        <mxCell id="Hi__8zFEiCCDAj8Q8Fkw-1" value="Model" style="html=1;whiteSpace=wrap;sketch=1;hachureGap=4;jiggle=2;curveFitting=1;fontFamily=Architects Daughter;fontSource=https%3A%2F%2Ffonts.googleapis.com%2Fcss%3Ffamily%3DArchitects%2BDaughter;fontSize=20;" parent="WIyWlLk6GJQsqaUBKTNV-1" vertex="1">
          <mxGeometry x="-1050" y="140" width="110" height="50" as="geometry" />
        </mxCell>
        <mxCell id="Hi__8zFEiCCDAj8Q8Fkw-2" value="Servidor de sincronização" style="html=1;whiteSpace=wrap;sketch=1;hachureGap=4;jiggle=2;curveFitting=1;fontFamily=Architects Daughter;fontSource=https%3A%2F%2Ffonts.googleapis.com%2Fcss%3Ffamily%3DArchitects%2BDaughter;fontSize=20;" parent="WIyWlLk6GJQsqaUBKTNV-1" vertex="1">
          <mxGeometry x="-507" y="140" width="188" height="50" as="geometry" />
        </mxCell>
        <mxCell id="Hi__8zFEiCCDAj8Q8Fkw-3" value="/Sync" style="swimlane;fontStyle=2;align=center;verticalAlign=top;childLayout=stackLayout;horizontal=1;startSize=26;horizontalStack=0;resizeParent=1;resizeLast=0;collapsible=1;marginBottom=0;rounded=0;shadow=0;strokeWidth=1;sketch=1;curveFitting=1;jiggle=2;" parent="WIyWlLk6GJQsqaUBKTNV-1" vertex="1">
          <mxGeometry x="-493" y="240" width="160" height="174" as="geometry">
            <mxRectangle x="230" y="140" width="160" height="26" as="alternateBounds" />
          </mxGeometry>
        </mxCell>
        <mxCell id="Hi__8zFEiCCDAj8Q8Fkw-8" value="+ OnConnect()" style="text;align=left;verticalAlign=top;spacingLeft=4;spacingRight=4;overflow=hidden;rotatable=0;points=[[0,0.5],[1,0.5]];portConstraint=eastwest;sketch=1;curveFitting=1;jiggle=2;" parent="Hi__8zFEiCCDAj8Q8Fkw-3" vertex="1">
          <mxGeometry y="26" width="160" height="26" as="geometry" />
        </mxCell>
        <mxCell id="Hi__8zFEiCCDAj8Q8Fkw-10" value="+ OnEmit()" style="text;align=left;verticalAlign=top;spacingLeft=4;spacingRight=4;overflow=hidden;rotatable=0;points=[[0,0.5],[1,0.5]];portConstraint=eastwest;sketch=1;curveFitting=1;jiggle=2;" parent="Hi__8zFEiCCDAj8Q8Fkw-3" vertex="1">
          <mxGeometry y="52" width="160" height="26" as="geometry" />
        </mxCell>
        <mxCell id="jRsQkOjOdsNTi6uR8f5m-14" value="+ OnReceive()" style="text;align=left;verticalAlign=top;spacingLeft=4;spacingRight=4;overflow=hidden;rotatable=0;points=[[0,0.5],[1,0.5]];portConstraint=eastwest;sketch=1;curveFitting=1;jiggle=2;" parent="Hi__8zFEiCCDAj8Q8Fkw-3" vertex="1">
          <mxGeometry y="78" width="160" height="26" as="geometry" />
        </mxCell>
        <mxCell id="vqzMiXKbGknRWC0DVuDT-0" value="&lt;span style=&quot;color: rgb(0, 0, 0); font-family: &amp;quot;Architects Daughter&amp;quot;; font-size: 11px; font-style: normal; font-variant-ligatures: normal; font-variant-caps: normal; font-weight: 400; letter-spacing: normal; orphans: 2; text-align: center; text-indent: 0px; text-transform: none; widows: 2; word-spacing: 0px; -webkit-text-stroke-width: 0px; background-color: rgb(251, 251, 251); text-decoration-thickness: initial; text-decoration-style: initial; text-decoration-color: initial; float: none; display: inline !important;&quot;&gt;//Controller de sincronização&lt;/span&gt;&lt;br style=&quot;border-color: var(--border-color); color: rgb(0, 0, 0); font-family: &amp;quot;Architects Daughter&amp;quot;; font-size: 11px; font-style: normal; font-variant-ligatures: normal; font-variant-caps: normal; font-weight: 400; letter-spacing: normal; orphans: 2; text-align: center; text-indent: 0px; text-transform: none; widows: 2; word-spacing: 0px; -webkit-text-stroke-width: 0px; background-color: rgb(251, 251, 251); text-decoration-thickness: initial; text-decoration-style: initial; text-decoration-color: initial;&quot;&gt;&lt;div style=&quot;text-align: center;&quot;&gt;&lt;span style=&quot;font-size: 11px;&quot;&gt;(SignalR HUB)&lt;/span&gt;&lt;/div&gt;" style="text;whiteSpace=wrap;html=1;fontSize=20;fontFamily=Architects Daughter;" vertex="1" parent="Hi__8zFEiCCDAj8Q8Fkw-3">
          <mxGeometry y="104" width="160" height="70" as="geometry" />
        </mxCell>
        <mxCell id="jRsQkOjOdsNTi6uR8f5m-15" value="Quando o client se conectar ao servidor, uma busca na base de dados ocorre para achar eventos que precisam ser enviados para ele." style="whiteSpace=wrap;html=1;shape=mxgraph.basic.document;sketch=1;hachureGap=4;jiggle=2;curveFitting=1;fontFamily=Architects Daughter;fontSource=https%3A%2F%2Ffonts.googleapis.com%2Fcss%3Ffamily%3DArchitects%2BDaughter;fontSize=11;" parent="WIyWlLk6GJQsqaUBKTNV-1" vertex="1">
          <mxGeometry x="-780" y="240" width="216" height="80" as="geometry" />
        </mxCell>
        <mxCell id="jRsQkOjOdsNTi6uR8f5m-16" style="edgeStyle=orthogonalEdgeStyle;rounded=0;sketch=1;hachureGap=4;jiggle=2;curveFitting=1;orthogonalLoop=1;jettySize=auto;html=1;exitX=0;exitY=0.5;exitDx=0;exitDy=0;fontFamily=Architects Daughter;fontSource=https%3A%2F%2Ffonts.googleapis.com%2Fcss%3Ffamily%3DArchitects%2BDaughter;fontSize=16;" parent="WIyWlLk6GJQsqaUBKTNV-1" source="Hi__8zFEiCCDAj8Q8Fkw-8" target="jRsQkOjOdsNTi6uR8f5m-15" edge="1">
          <mxGeometry relative="1" as="geometry" />
        </mxCell>
        <mxCell id="jRsQkOjOdsNTi6uR8f5m-18" value="&lt;p style=&quot;margin:0px;margin-top:4px;text-align:center;&quot;&gt;&lt;i&gt;&amp;lt;&amp;lt;Interface&amp;gt;&amp;gt;&lt;/i&gt;&lt;br&gt;&lt;/p&gt;&lt;div style=&quot;text-align: center;&quot;&gt;&lt;span style=&quot;background-color: initial; text-align: left;&quot;&gt;&lt;b&gt;execution_stack&lt;/b&gt;&lt;/span&gt;&lt;/div&gt;&lt;div style=&quot;&quot;&gt;&lt;span style=&quot;background-color: initial;&quot;&gt;&amp;nbsp;+ ID: string&lt;/span&gt;&lt;/div&gt;&lt;p style=&quot;margin:0px;margin-left:4px;&quot;&gt;+ NomeTabela: string&lt;/p&gt;&lt;p style=&quot;margin:0px;margin-left:4px;&quot;&gt;+ DadosAlterados: string&lt;/p&gt;&lt;p style=&quot;margin:0px;margin-left:4px;&quot;&gt;+ DataHoraEvento: Date&lt;/p&gt;&lt;p style=&quot;margin:0px;margin-left:4px;&quot;&gt;+ TipoEvento: string&lt;/p&gt;&lt;p style=&quot;margin:0px;margin-left:4px;&quot;&gt;&lt;br&gt;&lt;/p&gt;" style="verticalAlign=top;align=left;overflow=fill;fontSize=12;fontFamily=Helvetica;html=1;whiteSpace=wrap;sketch=1;hachureGap=4;jiggle=2;curveFitting=1;fontSource=https%3A%2F%2Ffonts.googleapis.com%2Fcss%3Ffamily%3DArchitects%2BDaughter;" parent="WIyWlLk6GJQsqaUBKTNV-1" vertex="1">
          <mxGeometry x="-1090" y="240" width="190" height="220" as="geometry" />
        </mxCell>
        <mxCell id="jRsQkOjOdsNTi6uR8f5m-23" style="edgeStyle=orthogonalEdgeStyle;rounded=0;sketch=1;hachureGap=4;jiggle=2;curveFitting=1;orthogonalLoop=1;jettySize=auto;html=1;fontFamily=Architects Daughter;fontSource=https%3A%2F%2Ffonts.googleapis.com%2Fcss%3Ffamily%3DArchitects%2BDaughter;fontSize=16;exitX=0;exitY=0.5;exitDx=0;exitDy=0;exitPerimeter=0;" parent="WIyWlLk6GJQsqaUBKTNV-1" source="jRsQkOjOdsNTi6uR8f5m-15" target="jRsQkOjOdsNTi6uR8f5m-27" edge="1">
          <mxGeometry relative="1" as="geometry">
            <mxPoint x="-850" y="360" as="targetPoint" />
          </mxGeometry>
        </mxCell>
        <mxCell id="jRsQkOjOdsNTi6uR8f5m-25" value="" style="line;strokeWidth=1;fillColor=none;align=left;verticalAlign=middle;spacingTop=-1;spacingLeft=3;spacingRight=3;rotatable=0;labelPosition=right;points=[];portConstraint=eastwest;strokeColor=inherit;sketch=1;hachureGap=4;jiggle=2;curveFitting=1;fontFamily=Architects Daughter;fontSource=https%3A%2F%2Ffonts.googleapis.com%2Fcss%3Ffamily%3DArchitects%2BDaughter;fontSize=20;" parent="WIyWlLk6GJQsqaUBKTNV-1" vertex="1">
          <mxGeometry x="-1090" y="350" width="190" height="8" as="geometry" />
        </mxCell>
        <mxCell id="jRsQkOjOdsNTi6uR8f5m-26" value="+ insert()" style="text;align=left;verticalAlign=top;spacingLeft=4;spacingRight=4;overflow=hidden;rotatable=0;points=[[0,0.5],[1,0.5]];portConstraint=eastwest;sketch=1;curveFitting=1;jiggle=2;" parent="WIyWlLk6GJQsqaUBKTNV-1" vertex="1">
          <mxGeometry x="-1085" y="378" width="180" height="32" as="geometry" />
        </mxCell>
        <mxCell id="jRsQkOjOdsNTi6uR8f5m-66" style="edgeStyle=orthogonalEdgeStyle;rounded=0;sketch=1;hachureGap=4;jiggle=2;curveFitting=1;orthogonalLoop=1;jettySize=auto;html=1;entryX=0.5;entryY=0;entryDx=0;entryDy=0;fontFamily=Architects Daughter;fontSource=https%3A%2F%2Ffonts.googleapis.com%2Fcss%3Ffamily%3DArchitects%2BDaughter;fontSize=16;" parent="WIyWlLk6GJQsqaUBKTNV-1" source="jRsQkOjOdsNTi6uR8f5m-27" target="Hi__8zFEiCCDAj8Q8Fkw-0" edge="1">
          <mxGeometry relative="1" as="geometry" />
        </mxCell>
        <mxCell id="jRsQkOjOdsNTi6uR8f5m-27" value="+ select()" style="text;align=left;verticalAlign=top;spacingLeft=4;spacingRight=4;overflow=hidden;rotatable=0;points=[[0,0.5],[1,0.5]];portConstraint=eastwest;sketch=1;curveFitting=1;jiggle=2;" parent="WIyWlLk6GJQsqaUBKTNV-1" vertex="1">
          <mxGeometry x="-1085" y="358" width="180" height="31" as="geometry" />
        </mxCell>
        <mxCell id="jRsQkOjOdsNTi6uR8f5m-64" style="edgeStyle=orthogonalEdgeStyle;rounded=0;sketch=1;hachureGap=4;jiggle=2;curveFitting=1;orthogonalLoop=1;jettySize=auto;html=1;entryX=0.5;entryY=0;entryDx=0;entryDy=0;fontFamily=Architects Daughter;fontSource=https%3A%2F%2Ffonts.googleapis.com%2Fcss%3Ffamily%3DArchitects%2BDaughter;fontSize=16;" parent="WIyWlLk6GJQsqaUBKTNV-1" source="jRsQkOjOdsNTi6uR8f5m-28" target="jRsQkOjOdsNTi6uR8f5m-59" edge="1">
          <mxGeometry relative="1" as="geometry">
            <Array as="points">
              <mxPoint x="-1130" y="416" />
              <mxPoint x="-1130" y="410" />
              <mxPoint x="-1240" y="410" />
            </Array>
          </mxGeometry>
        </mxCell>
        <mxCell id="jRsQkOjOdsNTi6uR8f5m-28" value="+ update()" style="text;align=left;verticalAlign=top;spacingLeft=4;spacingRight=4;overflow=hidden;rotatable=0;points=[[0,0.5],[1,0.5]];portConstraint=eastwest;sketch=1;curveFitting=1;jiggle=2;" parent="WIyWlLk6GJQsqaUBKTNV-1" vertex="1">
          <mxGeometry x="-1085" y="400" width="180" height="32" as="geometry" />
        </mxCell>
        <mxCell id="jRsQkOjOdsNTi6uR8f5m-54" style="edgeStyle=orthogonalEdgeStyle;rounded=0;sketch=1;hachureGap=4;jiggle=2;curveFitting=1;orthogonalLoop=1;jettySize=auto;html=1;exitX=0;exitY=0.5;exitDx=0;exitDy=0;entryX=1;entryY=0.5;entryDx=0;entryDy=0;fontFamily=Architects Daughter;fontSource=https%3A%2F%2Ffonts.googleapis.com%2Fcss%3Ffamily%3DArchitects%2BDaughter;fontSize=16;" parent="WIyWlLk6GJQsqaUBKTNV-1" source="jRsQkOjOdsNTi6uR8f5m-14" target="jRsQkOjOdsNTi6uR8f5m-28" edge="1">
          <mxGeometry relative="1" as="geometry">
            <Array as="points">
              <mxPoint x="-520" y="331" />
              <mxPoint x="-520" y="416" />
            </Array>
          </mxGeometry>
        </mxCell>
        <mxCell id="jRsQkOjOdsNTi6uR8f5m-55" value="&lt;font style=&quot;font-size: 11px;&quot;&gt;Remove o id do client da lista de ids desse evento&lt;/font&gt;" style="edgeLabel;html=1;align=center;verticalAlign=middle;resizable=0;points=[];fontSize=20;fontFamily=Architects Daughter;" parent="jRsQkOjOdsNTi6uR8f5m-54" vertex="1" connectable="0">
          <mxGeometry x="0.189" relative="1" as="geometry">
            <mxPoint x="3" y="-5" as="offset" />
          </mxGeometry>
        </mxCell>
        <mxCell id="jRsQkOjOdsNTi6uR8f5m-56" value="+ delete()" style="text;align=left;verticalAlign=top;spacingLeft=4;spacingRight=4;overflow=hidden;rotatable=0;points=[[0,0.5],[1,0.5]];portConstraint=eastwest;sketch=1;curveFitting=1;jiggle=2;" parent="WIyWlLk6GJQsqaUBKTNV-1" vertex="1">
          <mxGeometry x="-1085" y="424" width="180" height="32" as="geometry" />
        </mxCell>
        <mxCell id="jRsQkOjOdsNTi6uR8f5m-59" value="&lt;p style=&quot;line-height: 10%;&quot;&gt;&lt;font style=&quot;font-size: 11px;&quot;&gt;a lista ficou vazia?&lt;/font&gt;&lt;/p&gt;" style="rhombus;whiteSpace=wrap;html=1;fontColor=#000000;fillColor=#ffffc0;strokeColor=#ff0000;sketch=1;hachureGap=4;jiggle=2;curveFitting=1;fontFamily=Architects Daughter;fontSource=https%3A%2F%2Ffonts.googleapis.com%2Fcss%3Ffamily%3DArchitects%2BDaughter;fontSize=20;" parent="WIyWlLk6GJQsqaUBKTNV-1" vertex="1">
          <mxGeometry x="-1295" y="450" width="110" height="40" as="geometry" />
        </mxCell>
        <mxCell id="jRsQkOjOdsNTi6uR8f5m-60" value="sim" style="edgeStyle=orthogonalEdgeStyle;html=1;align=left;verticalAlign=bottom;endArrow=open;endSize=8;strokeColor=#ff0000;rounded=0;sketch=1;hachureGap=4;jiggle=2;curveFitting=1;fontFamily=Architects Daughter;fontSource=https%3A%2F%2Ffonts.googleapis.com%2Fcss%3Ffamily%3DArchitects%2BDaughter;fontSize=16;" parent="WIyWlLk6GJQsqaUBKTNV-1" source="jRsQkOjOdsNTi6uR8f5m-59" target="jRsQkOjOdsNTi6uR8f5m-56" edge="1">
          <mxGeometry x="-1" relative="1" as="geometry">
            <mxPoint x="-1100" y="440" as="targetPoint" />
            <mxPoint as="offset" />
          </mxGeometry>
        </mxCell>
        <mxCell id="jRsQkOjOdsNTi6uR8f5m-67" value="Fluxo de sincronização após conexão" style="text;html=1;align=center;verticalAlign=middle;resizable=0;points=[];autosize=1;strokeColor=none;fillColor=none;fontSize=20;fontFamily=Architects Daughter;imageAlign=center;" parent="WIyWlLk6GJQsqaUBKTNV-1" vertex="1">
          <mxGeometry x="-995" y="30" width="370" height="40" as="geometry" />
        </mxCell>
        <mxCell id="HvJhu8RIFM7844xApChd-3" style="edgeStyle=orthogonalEdgeStyle;rounded=0;sketch=1;hachureGap=4;jiggle=2;curveFitting=1;orthogonalLoop=1;jettySize=auto;html=1;entryX=0.25;entryY=0;entryDx=0;entryDy=0;fontFamily=Architects Daughter;fontSource=https%3A%2F%2Ffonts.googleapis.com%2Fcss%3Ffamily%3DArchitects%2BDaughter;fontSize=16;dashed=1;" parent="WIyWlLk6GJQsqaUBKTNV-1" source="HvJhu8RIFM7844xApChd-0" target="jRsQkOjOdsNTi6uR8f5m-18" edge="1">
          <mxGeometry relative="1" as="geometry" />
        </mxCell>
        <mxCell id="HvJhu8RIFM7844xApChd-0" value="&lt;p style=&quot;line-height: 82%;&quot;&gt;&lt;/p&gt;&lt;div style=&quot;&quot;&gt;&lt;span style=&quot;font-size: 11px; background-color: initial;&quot;&gt;Armazena os dados para que os clients que&lt;/span&gt;&lt;/div&gt;&lt;font style=&quot;font-size: 11px;&quot;&gt;&lt;div style=&quot;&quot;&gt;&lt;span style=&quot;background-color: initial;&quot;&gt;não estão conectados no momento do envio possam&lt;/span&gt;&lt;/div&gt;&lt;div style=&quot;&quot;&gt;&lt;span style=&quot;background-color: initial;&quot;&gt;&amp;nbsp;recebe-los quando se conectarem&lt;/span&gt;&lt;/div&gt;&lt;/font&gt;&lt;p&gt;&lt;/p&gt;" style="text;html=1;align=center;verticalAlign=middle;resizable=0;points=[];autosize=1;strokeColor=none;fillColor=none;fontSize=20;fontFamily=Architects Daughter;" parent="WIyWlLk6GJQsqaUBKTNV-1" vertex="1">
          <mxGeometry x="-1390" y="150" width="290" height="100" as="geometry" />
        </mxCell>
      </root>
    </mxGraphModel>
  </diagram>
  <diagram id="I1425I6Q4lxcdnc3qopk" name="Emissão de eventos">
    <mxGraphModel dx="2300" dy="785" grid="1" gridSize="10" guides="1" tooltips="1" connect="1" arrows="1" fold="1" page="1" pageScale="1" pageWidth="827" pageHeight="1169" math="0" shadow="0">
      <root>
        <mxCell id="0" />
        <mxCell id="1" parent="0" />
        <mxCell id="ARGoLYZWWMT1wSKJ1vYB-2" style="edgeStyle=orthogonalEdgeStyle;rounded=0;sketch=1;hachureGap=4;jiggle=2;curveFitting=1;orthogonalLoop=1;jettySize=auto;html=1;fontFamily=Architects Daughter;fontSource=https%3A%2F%2Ffonts.googleapis.com%2Fcss%3Ffamily%3DArchitects%2BDaughter;fontSize=16;" parent="1" source="ZoaKxBdLKp1PREuJ3JFW-2" target="ZoaKxBdLKp1PREuJ3JFW-7" edge="1">
          <mxGeometry relative="1" as="geometry" />
        </mxCell>
        <mxCell id="ARGoLYZWWMT1wSKJ1vYB-14" value="&lt;font style=&quot;font-size: 11px;&quot;&gt;Registrou alteração na base&lt;/font&gt;" style="edgeLabel;html=1;align=center;verticalAlign=middle;resizable=0;points=[];fontSize=20;fontFamily=Architects Daughter;" parent="ARGoLYZWWMT1wSKJ1vYB-2" vertex="1" connectable="0">
          <mxGeometry x="-0.0527" y="-1" relative="1" as="geometry">
            <mxPoint x="-59" y="-66" as="offset" />
          </mxGeometry>
        </mxCell>
        <mxCell id="ZoaKxBdLKp1PREuJ3JFW-2" value="Client" style="html=1;whiteSpace=wrap;sketch=1;hachureGap=4;jiggle=2;curveFitting=1;fontFamily=Architects Daughter;fontSource=https%3A%2F%2Ffonts.googleapis.com%2Fcss%3Ffamily%3DArchitects%2BDaughter;fontSize=20;" parent="1" vertex="1">
          <mxGeometry x="-800" y="140" width="110" height="50" as="geometry" />
        </mxCell>
        <mxCell id="ZoaKxBdLKp1PREuJ3JFW-3" value="Model" style="html=1;whiteSpace=wrap;sketch=1;hachureGap=4;jiggle=2;curveFitting=1;fontFamily=Architects Daughter;fontSource=https%3A%2F%2Ffonts.googleapis.com%2Fcss%3Ffamily%3DArchitects%2BDaughter;fontSize=20;" parent="1" vertex="1">
          <mxGeometry x="190" y="100" width="110" height="50" as="geometry" />
        </mxCell>
        <mxCell id="ZoaKxBdLKp1PREuJ3JFW-4" value="Servidor de sincronização" style="html=1;whiteSpace=wrap;sketch=1;hachureGap=4;jiggle=2;curveFitting=1;fontFamily=Architects Daughter;fontSource=https%3A%2F%2Ffonts.googleapis.com%2Fcss%3Ffamily%3DArchitects%2BDaughter;fontSize=20;" parent="1" vertex="1">
          <mxGeometry x="-475.5" y="140" width="188" height="50" as="geometry" />
        </mxCell>
        <mxCell id="ZoaKxBdLKp1PREuJ3JFW-5" value="Sync_Events" style="swimlane;fontStyle=2;align=center;verticalAlign=top;childLayout=stackLayout;horizontal=1;startSize=26;horizontalStack=0;resizeParent=1;resizeLast=0;collapsible=1;marginBottom=0;rounded=0;shadow=0;strokeWidth=1;sketch=1;curveFitting=1;jiggle=2;" parent="1" vertex="1">
          <mxGeometry x="-493" y="240" width="223" height="164" as="geometry">
            <mxRectangle x="-493" y="240" width="160" height="26" as="alternateBounds" />
          </mxGeometry>
        </mxCell>
        <mxCell id="ZoaKxBdLKp1PREuJ3JFW-6" value="+ OnConnect()" style="text;align=left;verticalAlign=top;spacingLeft=4;spacingRight=4;overflow=hidden;rotatable=0;points=[[0,0.5],[1,0.5]];portConstraint=eastwest;sketch=1;curveFitting=1;jiggle=2;" parent="ZoaKxBdLKp1PREuJ3JFW-5" vertex="1">
          <mxGeometry y="26" width="223" height="26" as="geometry" />
        </mxCell>
        <mxCell id="ZoaKxBdLKp1PREuJ3JFW-7" value="+ OnEmit(in event: execution_stack)" style="text;align=left;verticalAlign=top;spacingLeft=4;spacingRight=4;overflow=hidden;rotatable=0;points=[[0,0.5],[1,0.5]];portConstraint=eastwest;sketch=1;curveFitting=1;jiggle=2;fontStyle=2" parent="ZoaKxBdLKp1PREuJ3JFW-5" vertex="1">
          <mxGeometry y="52" width="223" height="26" as="geometry" />
        </mxCell>
        <mxCell id="ZoaKxBdLKp1PREuJ3JFW-8" value="+ OnReceive()" style="text;align=left;verticalAlign=top;spacingLeft=4;spacingRight=4;overflow=hidden;rotatable=0;points=[[0,0.5],[1,0.5]];portConstraint=eastwest;sketch=1;curveFitting=1;jiggle=2;" parent="ZoaKxBdLKp1PREuJ3JFW-5" vertex="1">
          <mxGeometry y="78" width="223" height="26" as="geometry" />
        </mxCell>
        <mxCell id="joi9s1srGYAvUPjW6hSq-1" value="&lt;font style=&quot;font-size: 11px;&quot;&gt;//Controller de sincronização&lt;br&gt;(SignalR HUB)&lt;/font&gt;" style="text;html=1;align=center;verticalAlign=middle;resizable=0;points=[];autosize=1;strokeColor=none;fillColor=none;fontSize=20;fontFamily=Architects Daughter;" vertex="1" parent="ZoaKxBdLKp1PREuJ3JFW-5">
          <mxGeometry y="104" width="223" height="60" as="geometry" />
        </mxCell>
        <mxCell id="WpcuqMhgFBW8ieV65mHq-10" style="edgeStyle=orthogonalEdgeStyle;rounded=0;sketch=1;hachureGap=4;jiggle=2;curveFitting=1;orthogonalLoop=1;jettySize=auto;html=1;exitX=0.5;exitY=1;exitDx=0;exitDy=0;fontFamily=Architects Daughter;fontSource=https%3A%2F%2Ffonts.googleapis.com%2Fcss%3Ffamily%3DArchitects%2BDaughter;fontSize=16;" edge="1" parent="1" source="ZoaKxBdLKp1PREuJ3JFW-11" target="WpcuqMhgFBW8ieV65mHq-3">
          <mxGeometry relative="1" as="geometry" />
        </mxCell>
        <mxCell id="WpcuqMhgFBW8ieV65mHq-11" value="&lt;p style=&quot;line-height: 100%;&quot;&gt;&lt;font style=&quot;font-size: 11px;&quot;&gt;constroi o objeto do tipo &lt;i&gt;execution_Stack &lt;/i&gt;com &lt;br&gt;o restante dos dados recebidos pelo &lt;br&gt;client e insere eles na base de dados da aplicação&lt;/font&gt;&lt;/p&gt;" style="edgeLabel;html=1;align=left;verticalAlign=middle;resizable=0;points=[];fontSize=20;fontFamily=Architects Daughter;" vertex="1" connectable="0" parent="WpcuqMhgFBW8ieV65mHq-10">
          <mxGeometry x="-0.7137" y="2" relative="1" as="geometry">
            <mxPoint x="-132" as="offset" />
          </mxGeometry>
        </mxCell>
        <mxCell id="ZoaKxBdLKp1PREuJ3JFW-11" value="&lt;p style=&quot;margin:0px;margin-top:4px;text-align:center;&quot;&gt;&lt;i&gt;&amp;lt;&amp;lt;Interface&amp;gt;&amp;gt;&lt;/i&gt;&lt;br&gt;&lt;/p&gt;&lt;div style=&quot;text-align: center;&quot;&gt;&lt;span style=&quot;background-color: initial; text-align: left;&quot;&gt;&lt;b&gt;execution_stack&lt;/b&gt;&lt;/span&gt;&lt;/div&gt;&lt;div style=&quot;&quot;&gt;&lt;span style=&quot;background-color: initial;&quot;&gt;&amp;nbsp;&lt;/span&gt;&lt;/div&gt;" style="verticalAlign=top;align=left;overflow=fill;fontSize=12;fontFamily=Helvetica;html=1;whiteSpace=wrap;sketch=1;hachureGap=4;jiggle=2;curveFitting=1;fontSource=https%3A%2F%2Ffonts.googleapis.com%2Fcss%3Ffamily%3DArchitects%2BDaughter;" parent="1" vertex="1">
          <mxGeometry x="150" y="200" width="220" height="180" as="geometry" />
        </mxCell>
        <mxCell id="ARGoLYZWWMT1wSKJ1vYB-6" value="+ ID: string" style="text;html=1;strokeColor=none;fillColor=none;align=left;verticalAlign=middle;whiteSpace=wrap;rounded=0;fontSize=11;fontFamily=Architects Daughter;" parent="1" vertex="1">
          <mxGeometry x="155" y="240" width="210" height="30" as="geometry" />
        </mxCell>
        <mxCell id="ARGoLYZWWMT1wSKJ1vYB-9" value="+ created_at: Date" style="text;html=1;strokeColor=none;fillColor=none;align=left;verticalAlign=middle;whiteSpace=wrap;rounded=0;fontSize=11;fontFamily=Architects Daughter;" parent="1" vertex="1">
          <mxGeometry x="155" y="264" width="210" height="30" as="geometry" />
        </mxCell>
        <mxCell id="ARGoLYZWWMT1wSKJ1vYB-10" value="+ event: string" style="text;html=1;strokeColor=none;fillColor=none;align=left;verticalAlign=middle;whiteSpace=wrap;rounded=0;fontSize=11;fontFamily=Architects Daughter;" parent="1" vertex="1">
          <mxGeometry x="155" y="289" width="210" height="30" as="geometry" />
        </mxCell>
        <mxCell id="ARGoLYZWWMT1wSKJ1vYB-12" value="+ unreceived_ids: Array&amp;lt;string&amp;gt;" style="text;html=1;strokeColor=none;fillColor=none;align=left;verticalAlign=middle;whiteSpace=wrap;rounded=0;fontSize=11;fontFamily=Architects Daughter;" parent="1" vertex="1">
          <mxGeometry x="155" y="313" width="210" height="30" as="geometry" />
        </mxCell>
        <mxCell id="ARGoLYZWWMT1wSKJ1vYB-16" value="" style="endArrow=open;endSize=12;dashed=1;html=1;rounded=0;sketch=1;hachureGap=4;jiggle=2;curveFitting=1;fontFamily=Architects Daughter;fontSource=https%3A%2F%2Ffonts.googleapis.com%2Fcss%3Ffamily%3DArchitects%2BDaughter;fontSize=16;entryX=0.5;entryY=0;entryDx=0;entryDy=0;" parent="1" source="ZoaKxBdLKp1PREuJ3JFW-7" target="ZoaKxBdLKp1PREuJ3JFW-11" edge="1">
          <mxGeometry width="160" relative="1" as="geometry">
            <mxPoint x="-270" y="254.82" as="sourcePoint" />
            <mxPoint x="-110" y="254.82" as="targetPoint" />
            <Array as="points">
              <mxPoint x="-60" y="305" />
              <mxPoint x="-60" y="170" />
              <mxPoint x="260" y="170" />
            </Array>
          </mxGeometry>
        </mxCell>
        <mxCell id="6p6lhP1rh2wGfiCy3PhJ-2" value="+ client_id: string" style="text;html=1;strokeColor=none;fillColor=none;align=left;verticalAlign=middle;whiteSpace=wrap;rounded=0;fontSize=11;fontFamily=Architects Daughter;" vertex="1" parent="1">
          <mxGeometry x="155" y="334" width="210" height="30" as="geometry" />
        </mxCell>
        <mxCell id="BHCw4KZOJO7cibhPzfV9-1" value="&lt;p style=&quot;margin:0px;margin-top:4px;text-align:center;&quot;&gt;&lt;i style=&quot;background-color: initial;&quot;&gt;&lt;b&gt;GroupsService&lt;/b&gt;&lt;/i&gt;&lt;/p&gt;&lt;hr size=&quot;1&quot;&gt;&lt;p style=&quot;margin:0px;margin-left:4px;&quot;&gt;&lt;span style=&quot;background-color: initial;&quot;&gt;&lt;br&gt;&lt;/span&gt;&lt;/p&gt;&lt;p style=&quot;margin:0px;margin-left:4px;&quot;&gt;&lt;span style=&quot;background-color: initial;&quot;&gt;+ FindGroup(in client_id: string; out clientIdList: string[ ])&lt;/span&gt;&lt;br&gt;&lt;/p&gt;" style="verticalAlign=top;align=left;overflow=fill;fontSize=12;fontFamily=Helvetica;html=1;whiteSpace=wrap;sketch=1;hachureGap=4;jiggle=2;curveFitting=1;fontSource=https%3A%2F%2Ffonts.googleapis.com%2Fcss%3Ffamily%3DArchitects%2BDaughter;" vertex="1" parent="1">
          <mxGeometry x="-544.25" y="520" width="325.5" height="80" as="geometry" />
        </mxCell>
        <mxCell id="joNZeOUB0Fmhq8nzCsPN-2" style="edgeStyle=orthogonalEdgeStyle;rounded=0;sketch=1;hachureGap=4;jiggle=2;curveFitting=1;orthogonalLoop=1;jettySize=auto;html=1;exitX=1;exitY=0.5;exitDx=0;exitDy=0;entryX=0.001;entryY=0.647;entryDx=0;entryDy=0;entryPerimeter=0;fontFamily=Architects Daughter;fontSource=https%3A%2F%2Ffonts.googleapis.com%2Fcss%3Ffamily%3DArchitects%2BDaughter;fontSize=16;" edge="1" parent="1" source="ZoaKxBdLKp1PREuJ3JFW-7" target="BHCw4KZOJO7cibhPzfV9-1">
          <mxGeometry relative="1" as="geometry">
            <Array as="points">
              <mxPoint x="-250" y="305" />
              <mxPoint x="-250" y="450" />
              <mxPoint x="-564" y="450" />
              <mxPoint x="-564" y="572" />
            </Array>
          </mxGeometry>
        </mxCell>
        <mxCell id="joNZeOUB0Fmhq8nzCsPN-3" value="&lt;p style=&quot;line-height: 110%; font-size: 11px;&quot;&gt;Recebe o ID do client que enviou o evento&amp;nbsp;&lt;span style=&quot;background-color: initial;&quot;&gt;e&amp;nbsp;&lt;/span&gt;&lt;span style=&quot;background-color: initial;&quot;&gt;procura&lt;/span&gt;&lt;/p&gt;&lt;p style=&quot;line-height: 110%; font-size: 11px;&quot;&gt;&lt;span style=&quot;background-color: initial;&quot;&gt;na base de dados se ele faz parte de algum grupo de rádios&lt;/span&gt;&lt;/p&gt;&lt;p style=&quot;line-height: 110%; font-size: 11px;&quot;&gt;caso sim, devolve os IDs do grupo que o client participa,&amp;nbsp;&lt;span style=&quot;background-color: initial;&quot;&gt;para&lt;/span&gt;&lt;/p&gt;&lt;p style=&quot;line-height: 110%; font-size: 11px;&quot;&gt;&lt;span style=&quot;background-color: initial;&quot;&gt;que o servidor saiba quem precisa receber esse evento emitido&lt;/span&gt;&lt;/p&gt;" style="text;html=1;align=center;verticalAlign=middle;resizable=0;points=[];autosize=1;strokeColor=none;fillColor=#E6E6E6;fontSize=20;fontFamily=Architects Daughter;fillStyle=hatch;" vertex="1" parent="1">
          <mxGeometry x="-556.5" y="609" width="350" height="120" as="geometry" />
        </mxCell>
        <mxCell id="joNZeOUB0Fmhq8nzCsPN-5" style="edgeStyle=orthogonalEdgeStyle;rounded=0;sketch=1;hachureGap=4;jiggle=2;curveFitting=1;orthogonalLoop=1;jettySize=auto;html=1;entryX=0.002;entryY=0.72;entryDx=0;entryDy=0;entryPerimeter=0;fontFamily=Architects Daughter;fontSource=https%3A%2F%2Ffonts.googleapis.com%2Fcss%3Ffamily%3DArchitects%2BDaughter;fontSize=16;exitX=1.009;exitY=0.69;exitDx=0;exitDy=0;exitPerimeter=0;" edge="1" parent="1" source="BHCw4KZOJO7cibhPzfV9-1" target="ZoaKxBdLKp1PREuJ3JFW-11">
          <mxGeometry relative="1" as="geometry" />
        </mxCell>
        <mxCell id="WpcuqMhgFBW8ieV65mHq-1" value="ExecutionStackService" style="swimlane;fontStyle=2;align=center;verticalAlign=top;childLayout=stackLayout;horizontal=1;startSize=26;horizontalStack=0;resizeParent=1;resizeLast=0;collapsible=1;marginBottom=0;rounded=0;shadow=0;strokeWidth=1;sketch=1;curveFitting=1;jiggle=2;" vertex="1" parent="1">
          <mxGeometry x="150" y="590" width="223" height="90" as="geometry">
            <mxRectangle x="165" y="470" width="160" height="26" as="alternateBounds" />
          </mxGeometry>
        </mxCell>
        <mxCell id="WpcuqMhgFBW8ieV65mHq-2" value="..." style="text;align=left;verticalAlign=top;spacingLeft=4;spacingRight=4;overflow=hidden;rotatable=0;points=[[0,0.5],[1,0.5]];portConstraint=eastwest;sketch=1;curveFitting=1;jiggle=2;" vertex="1" parent="WpcuqMhgFBW8ieV65mHq-1">
          <mxGeometry y="26" width="223" height="26" as="geometry" />
        </mxCell>
        <mxCell id="WpcuqMhgFBW8ieV65mHq-3" value="+ Insert(in event: execution_stack)" style="text;align=left;verticalAlign=top;spacingLeft=4;spacingRight=4;overflow=hidden;rotatable=0;points=[[0,0.5],[1,0.5]];portConstraint=eastwest;sketch=1;curveFitting=1;jiggle=2;fontStyle=2" vertex="1" parent="WpcuqMhgFBW8ieV65mHq-1">
          <mxGeometry y="52" width="223" height="26" as="geometry" />
        </mxCell>
      </root>
    </mxGraphModel>
  </diagram>
  <diagram id="DM7zV98jvHHf0g4bMoey" name="Lista de sincronização">
    <mxGraphModel dx="2019" dy="635" grid="1" gridSize="10" guides="1" tooltips="1" connect="1" arrows="1" fold="1" page="1" pageScale="1" pageWidth="827" pageHeight="1169" math="0" shadow="0">
      <root>
        <mxCell id="0" />
        <mxCell id="1" parent="0" />
        <mxCell id="uWUpgtVosjXJ5QKTXQlq-5" style="edgeStyle=orthogonalEdgeStyle;rounded=0;sketch=1;hachureGap=4;jiggle=2;curveFitting=1;orthogonalLoop=1;jettySize=auto;html=1;entryX=0.5;entryY=0;entryDx=0;entryDy=0;fontFamily=Architects Daughter;fontSource=https%3A%2F%2Ffonts.googleapis.com%2Fcss%3Ffamily%3DArchitects%2BDaughter;fontSize=16;exitX=-0.003;exitY=0.562;exitDx=0;exitDy=0;exitPerimeter=0;dashed=1;endArrow=open;endFill=0;" edge="1" parent="1" source="uWUpgtVosjXJ5QKTXQlq-1" target="uWUpgtVosjXJ5QKTXQlq-3">
          <mxGeometry relative="1" as="geometry">
            <mxPoint x="430" y="200" as="sourcePoint" />
            <Array as="points">
              <mxPoint x="195" y="192" />
              <mxPoint x="195" y="110" />
              <mxPoint x="645" y="110" />
            </Array>
          </mxGeometry>
        </mxCell>
        <mxCell id="uWUpgtVosjXJ5QKTXQlq-1" value="&lt;p style=&quot;margin:0px;margin-top:4px;text-align:center;&quot;&gt;&lt;i&gt;&amp;lt;&amp;lt;Interface&amp;gt;&amp;gt;&lt;/i&gt;&lt;/p&gt;&lt;p style=&quot;margin:0px;margin-top:4px;text-align:center;&quot;&gt;&lt;i&gt;&lt;b&gt;Group&lt;/b&gt;&lt;/i&gt;&lt;br&gt;&lt;/p&gt;&lt;p style=&quot;margin:0px;margin-left:4px;&quot;&gt;+ Id: string&lt;br&gt;+ Group_Name: string&lt;/p&gt;&lt;p style=&quot;margin:0px;margin-left:4px;&quot;&gt;+ Client_List: IClient[ ]&lt;/p&gt;&lt;p style=&quot;margin:0px;margin-left:4px;&quot;&gt;+ Web_Sync: boolean&lt;/p&gt;" style="verticalAlign=top;align=left;overflow=fill;fontSize=12;fontFamily=Helvetica;html=1;whiteSpace=wrap;sketch=1;hachureGap=4;jiggle=2;curveFitting=1;fontSource=https%3A%2F%2Ffonts.googleapis.com%2Fcss%3Ffamily%3DArchitects%2BDaughter;" vertex="1" parent="1">
          <mxGeometry x="215" y="130" width="190" height="110" as="geometry" />
        </mxCell>
        <mxCell id="uWUpgtVosjXJ5QKTXQlq-3" value="&lt;p style=&quot;margin:0px;margin-top:4px;text-align:center;&quot;&gt;&lt;i&gt;&amp;lt;&amp;lt;Interface&amp;gt;&amp;gt;&lt;/i&gt;&lt;/p&gt;&lt;p style=&quot;margin:0px;margin-top:4px;text-align:center;&quot;&gt;&lt;b&gt;&lt;i&gt;IClient&lt;/i&gt;&lt;/b&gt;&lt;/p&gt;&lt;p style=&quot;margin:0px;margin-left:4px;&quot;&gt;+ Id: string&lt;br&gt;+ Station_Name: string&lt;/p&gt;&lt;p style=&quot;margin:0px;margin-left:4px;&quot;&gt;+ Client_Id: string&lt;/p&gt;&lt;hr size=&quot;1&quot;&gt;&lt;p style=&quot;margin:0px;margin-left:4px;&quot;&gt;+ AddClient(IClient: client)&lt;br&gt;&lt;/p&gt;" style="verticalAlign=top;align=left;overflow=fill;fontSize=12;fontFamily=Helvetica;html=1;whiteSpace=wrap;sketch=1;hachureGap=4;jiggle=2;curveFitting=1;fontSource=https%3A%2F%2Ffonts.googleapis.com%2Fcss%3Ffamily%3DArchitects%2BDaughter;" vertex="1" parent="1">
          <mxGeometry x="550" y="130" width="190" height="130" as="geometry" />
        </mxCell>
        <mxCell id="x1lippDHq1BlaQIS-EsO-1" value="Client" style="html=1;whiteSpace=wrap;sketch=1;hachureGap=4;jiggle=2;curveFitting=1;fontFamily=Architects Daughter;fontSource=https%3A%2F%2Ffonts.googleapis.com%2Fcss%3Ffamily%3DArchitects%2BDaughter;fontSize=20;" vertex="1" parent="1">
          <mxGeometry x="-160" y="110" width="110" height="50" as="geometry" />
        </mxCell>
        <mxCell id="x1lippDHq1BlaQIS-EsO-2" style="edgeStyle=orthogonalEdgeStyle;rounded=0;sketch=1;hachureGap=4;jiggle=2;curveFitting=1;orthogonalLoop=1;jettySize=auto;html=1;exitX=1;exitY=0.5;exitDx=0;exitDy=0;entryX=-0.002;entryY=0.885;entryDx=0;entryDy=0;entryPerimeter=0;fontFamily=Architects Daughter;fontSource=https%3A%2F%2Ffonts.googleapis.com%2Fcss%3Ffamily%3DArchitects%2BDaughter;fontSize=16;" edge="1" parent="1" source="x1lippDHq1BlaQIS-EsO-1" target="uWUpgtVosjXJ5QKTXQlq-1">
          <mxGeometry relative="1" as="geometry" />
        </mxCell>
        <mxCell id="x1lippDHq1BlaQIS-EsO-3" value="&lt;p style=&quot;line-height: 40%;&quot;&gt;&lt;font style=&quot;font-size: 11px;&quot;&gt;Uma nova radio afiliada&lt;br&gt;&amp;nbsp;vai ser adicionada&amp;nbsp;ao&lt;br&gt;&amp;nbsp;processo de sincronização&lt;/font&gt;&lt;/p&gt;" style="edgeLabel;html=1;align=center;verticalAlign=middle;resizable=0;points=[];fontSize=20;fontFamily=Architects Daughter;" vertex="1" connectable="0" parent="x1lippDHq1BlaQIS-EsO-2">
          <mxGeometry x="-0.7331" y="-1" relative="1" as="geometry">
            <mxPoint x="89" y="54" as="offset" />
          </mxGeometry>
        </mxCell>
        <mxCell id="v6asezUtxu93grfG485A-1" value="GroupsService" style="swimlane;fontStyle=2;align=center;verticalAlign=top;childLayout=stackLayout;horizontal=1;startSize=26;horizontalStack=0;resizeParent=1;resizeLast=0;collapsible=1;marginBottom=0;rounded=0;shadow=0;strokeWidth=1;sketch=1;curveFitting=1;jiggle=2;" vertex="1" parent="1">
          <mxGeometry x="198.5" y="360" width="223" height="90" as="geometry">
            <mxRectangle x="165" y="470" width="160" height="26" as="alternateBounds" />
          </mxGeometry>
        </mxCell>
        <mxCell id="v6asezUtxu93grfG485A-2" value="..." style="text;align=left;verticalAlign=top;spacingLeft=4;spacingRight=4;overflow=hidden;rotatable=0;points=[[0,0.5],[1,0.5]];portConstraint=eastwest;sketch=1;curveFitting=1;jiggle=2;" vertex="1" parent="v6asezUtxu93grfG485A-1">
          <mxGeometry y="26" width="223" height="26" as="geometry" />
        </mxCell>
        <mxCell id="v6asezUtxu93grfG485A-3" value="+ Insert(in newGroup: Group)" style="text;align=left;verticalAlign=top;spacingLeft=4;spacingRight=4;overflow=hidden;rotatable=0;points=[[0,0.5],[1,0.5]];portConstraint=eastwest;sketch=1;curveFitting=1;jiggle=2;fontStyle=2" vertex="1" parent="v6asezUtxu93grfG485A-1">
          <mxGeometry y="52" width="223" height="26" as="geometry" />
        </mxCell>
        <mxCell id="v6asezUtxu93grfG485A-4" style="edgeStyle=orthogonalEdgeStyle;rounded=0;sketch=1;hachureGap=4;jiggle=2;curveFitting=1;orthogonalLoop=1;jettySize=auto;html=1;entryX=0.5;entryY=-0.044;entryDx=0;entryDy=0;entryPerimeter=0;fontFamily=Architects Daughter;fontSource=https%3A%2F%2Ffonts.googleapis.com%2Fcss%3Ffamily%3DArchitects%2BDaughter;fontSize=16;" edge="1" parent="1" source="uWUpgtVosjXJ5QKTXQlq-1" target="v6asezUtxu93grfG485A-1">
          <mxGeometry relative="1" as="geometry" />
        </mxCell>
      </root>
    </mxGraphModel>
  </diagram>
</mxfile>
